Coordinates
version=1
nRows=60
nColumns=12
inDegrees=yes

Units are S.I. units (second, meters, Newtons, ...)
Angles are in degrees

endheader
time	SC_y	SC_z	SC_x	AC_y	AC_z	AC_x	GH_y	GH_z	GH_yy	EL_x	PS_y
       0.0              -30.09          7.782          18.88          51.43          8.096         -13.15         -73.39          35.94         -49.23          27.56          79.14
   0.04071              -30.09          7.786          18.88          51.43          8.094         -13.15         -73.38          35.94         -49.21          27.56          79.15
   0.08141              -30.09           7.79          18.88          51.43          8.092         -13.15         -73.38          35.94         -49.18          27.56          79.16
    0.1221              -30.09          7.795          18.88          51.43          8.089         -13.15         -73.37          35.95         -49.16          27.56          79.17
    0.1628              -30.09            7.8          18.89          51.44          8.087         -13.15         -73.36          35.95         -49.13          27.56          79.18
    0.2035              -30.09          7.805          18.89          51.44          8.084         -13.15         -73.36          35.95          -49.1          27.57           79.2
    0.2442              -30.09          7.811          18.89          51.44          8.081         -13.15         -73.35          35.95         -49.07          27.57          79.21
    0.2849              -30.09          7.817           18.9          51.45          8.078         -13.15         -73.34          35.96         -49.03          27.57          79.22
    0.3257              -30.09          7.823           18.9          51.45          8.074         -13.16         -73.33          35.96          -49.0          27.57          79.24
    0.3664              -30.09           7.83          18.91          51.46          8.071         -13.16         -73.32          35.96         -48.96          27.57          79.26
    0.4071              -30.09          7.837          18.91          51.46          8.067         -13.16         -73.31          35.97         -48.91          27.57          79.27
    0.4478              -30.09          7.845          18.91          51.47          8.063         -13.16          -73.3          35.97         -48.87          27.58          79.29
    0.4885              -30.09          7.854          18.92          51.47          8.058         -13.16         -73.29          35.98         -48.82          27.58          79.31
    0.5292              -30.09          7.863          18.93          51.48          8.053         -13.16         -73.27          35.98         -48.77          27.58          79.34
    0.5699              -30.09          7.873          18.93          51.48          8.048         -13.16         -73.26          35.98         -48.71          27.58          79.36
    0.6106              -30.09          7.884          18.94          51.49          8.042         -13.17         -73.25          35.99         -48.65          27.59          79.39
    0.6513              -30.09          7.896          18.95           51.5          8.036         -13.17         -73.23           36.0         -48.58          27.59          79.42
     0.692              -30.09          7.909          18.95          51.51           8.03         -13.17         -73.21           36.0          -48.5          27.59          79.45
    0.7327              -30.09          7.923          18.96          51.52          8.022         -13.17         -73.19          36.01         -48.42           27.6          79.48
    0.7734              -30.09          7.938          18.97          51.53          8.014         -13.17         -73.17          36.02         -48.34           27.6          79.52
    0.8141              -30.09          7.955          18.98          51.54          8.005         -13.18         -73.14          36.02         -48.24          27.61          79.56
    0.8548              -30.09          7.974          18.99          51.55          7.995         -13.18         -73.12          36.03         -48.13          27.61           79.6
    0.8956              -30.09          7.995          19.01          51.56          7.985         -13.18         -73.09          36.04         -48.01          27.62          79.65
    0.9363              -30.09          8.017          19.02          51.58          7.973         -13.19         -73.06          36.06         -47.88          27.63          79.71
     0.977              -30.09          8.043          19.04          51.59           7.96         -13.19         -73.02          36.07         -47.74          27.63          79.77
     1.018              -30.09          8.071          19.05          51.61          7.945         -13.19         -72.98          36.08         -47.58          27.64          79.84
     1.058              -30.09          8.103          19.07          51.63          7.928          -13.2         -72.94           36.1         -47.39          27.65          79.92
     1.099              -30.09          8.138           19.1          51.66           7.91          -13.2         -72.89          36.11         -47.19          27.66           80.0
      1.14              -30.09          8.179          19.12          51.68          7.889         -13.21         -72.83          36.13         -46.96          27.67           80.1
     1.181              -30.08          8.224          19.15          51.71          7.865         -13.22         -72.76          36.16          -46.7          27.69          80.21
     1.221              -30.08          8.277          19.18          51.75          7.837         -13.23         -72.69          36.18          -46.4           27.7          80.34
     1.262              -30.08          8.336          19.22          51.78          7.806         -13.24         -72.61          36.21         -46.05          27.72          80.48
     1.303              -30.08          8.406          19.26          51.83           7.77         -13.25         -72.51          36.25         -45.66          27.74          80.65
     1.343              -30.08          8.486          19.31          51.88          7.728         -13.26         -72.39          36.28          -45.2          27.76          80.84
     1.384              -30.08           8.58          19.37          51.94          7.679         -13.27         -72.26          36.33         -44.66          27.79          81.07
     1.425              -30.08          8.691          19.44          52.01          7.621         -13.29         -72.11          36.39         -44.02          27.82          81.34
     1.465              -30.07          8.822          19.52           52.1          7.552         -13.31         -71.92          36.45         -43.27          27.86          81.66
     1.506              -30.07           8.98          19.62           52.2          7.469         -13.34          -71.7          36.53         -42.36           27.9          82.04
     1.547              -30.07          9.171          19.74          52.33           7.37         -13.37         -71.43          36.62         -41.27          27.96           82.5
     1.588              -30.07          9.405          19.88          52.48          7.248          -13.4          -71.1          36.73         -39.93          28.02          83.07
     1.628              -30.06          9.692          20.06          52.66          7.097         -13.45         -70.69          36.88         -38.28          28.11          83.76
     1.669              -30.06          10.05          20.28          52.89          6.909          -13.5         -70.18          37.05         -36.23          28.21          84.63
      1.71              -30.05           10.5          20.56          53.19          6.673         -13.57         -69.54          37.27         -33.63          28.34          85.73
      1.75              -30.04          11.08          20.92          53.56          6.372         -13.66         -68.73          37.56         -30.34          28.51          87.12
     1.791              -30.03          11.81          21.37          54.04          5.988         -13.78         -67.69          37.92         -26.12          28.72           88.9
     1.832              -30.01          12.76          21.96          54.65          5.494         -13.93         -66.35          38.38         -20.71          28.99          91.18
     1.873              -29.99          13.97          22.71          55.43          4.863         -14.12         -64.65          38.97         -13.79          29.34           94.1
     1.913              -29.97          15.48          23.65          56.41           4.07         -14.35         -62.51          39.71           -5.1          29.77          97.77
     1.954              -29.94          17.33          24.79          57.61          3.104         -14.64         -59.89          40.62          5.494           30.3          102.2
     1.995              -29.91          19.47          26.12          58.99          1.984         -14.98         -56.86          41.67          17.77          30.92          107.4
     2.035              -29.87          21.79          27.56           60.5         0.7707         -15.34         -53.58          42.81          31.07          31.58          113.0
     2.076              -29.83          24.11           29.0           62.0        -0.4423          -15.7         -50.31          43.94          44.37          32.25          118.7
     2.117               -29.8          26.26          30.33          63.38         -1.562         -16.04         -47.28          44.99          56.65          32.87          123.8
     2.157              -29.77           28.1          31.47          64.58         -2.529         -16.33         -44.66           45.9          67.24           33.4          128.3
     2.198              -29.75          29.62          32.41          65.56         -3.322         -16.56         -42.52          46.64          75.93          33.83          132.0
     2.239              -29.73          30.83          33.16          66.34         -3.953         -16.75         -40.81          47.23          82.85          34.18          134.9
      2.28              -29.71          31.77          33.74          66.95         -4.446          -16.9         -39.48          47.69          88.26          34.45          137.2
      2.32               -29.7          32.51           34.2          67.43         -4.831         -17.02         -38.44          48.06          92.48          34.66          139.0
     2.361              -29.69          33.08          34.56           67.8         -5.132         -17.11         -37.63          48.34          95.77          34.83          140.4
     2.402              -29.69          33.54          34.84           68.1         -5.368         -17.18         -36.99          48.56          98.37          34.96          141.4
